# xmcd
#
# Track frame offsets: 
#        150
#        18654
#        34826
#        58660
#        74369
#        92389
#        113951
#        133420
#        151995
#        168999
#        187950
#        217024
#        228919
#        241129
#        254775
#        272297
#        288224
#        303021
#        321142
#        339075
#
# Disc length: 4797 seconds
#
# Revision: 0
# Processed by: cddbd v1.5.2PL0 Copyright (c) Steve Scherf et al.
# Submitted via: ExactAudioCopy v0.99pb4
#
DISCID=1512bb14
DTITLE=Various Artist - prevue promo 1131A-3
DYEAR=2004
DGENRE=pop
TTITLE0=Kylie Minogue - Slow
TTITLE1=Rod Stewart - Moonglow
TTITLE2=Trina Broussard - Losing My Mind
TTITLE3=MaryMary - Dance, Dance, Dance
TTITLE4=Samantha Ronson - Pull My Hair Out
TTITLE5=Natasha C. Coward - What Would You Do
TTITLE6=Twista with Kanye West and Jamie Foxx - Slow Jamz(Edited)
TTITLE7=Gemini and MC Magic of NB Ridaz (Female Vocals by Entyce, Talk
TTITLE7=box by MC Magic) - Crazy For You
TTITLE8=Gemini and Russell Lee (Female Vocals by Entyce, Talkbox by MC
TTITLE8=Magic) - Crazy For You(Remix)
TTITLE9=Gerald Levert - Wear It Out(Lyric Content - "Radio Edit")
TTITLE10=Dina Rae - AND?(Edit)
TTITLE11=Bad Boys Da Band - Tonight(Lyric Content - "Radio Edit")
TTITLE12=Mindy Smith - Come To Jesus
TTITLE13=Limits, The - Don't Steal My Heart
TTITLE14=Ben Harper - Brown Eyed Blues(Album Version - Inst. Begins @ 
TTITLE14=4:17)
TTITLE15=Dandy Warhols, The - Last High, The(Lyric )
TTITLE16=Melissa Auf der Maur - Followed The Waves
TTITLE17=O.A.R. - Right On Time
TTITLE18=DrugMoney - Small Thinking
TTITLE19=Jay-Z - 99 Problems(LYRIC - "Radio")
EXTD=
EXTT0=
EXTT1=
EXTT2=
EXTT3=
EXTT4=
EXTT5=
EXTT6=
EXTT7=
EXTT8=
EXTT9=
EXTT10=
EXTT11=
EXTT12=
EXTT13=
EXTT14=
EXTT15=
EXTT16=
EXTT17=
EXTT18=
EXTT19=
PLAYORDER=
